<mxfile host="Electron" modified="2023-05-19T13:19:12.323Z" agent="Mozilla/5.0 (X11; Linux x86_64) AppleWebKit/537.36 (KHTML, like Gecko) draw.io/21.1.2 Chrome/106.0.5249.199 Electron/21.4.3 Safari/537.36" etag="Gzv9vVpLru30twSFR95V" version="21.1.2" type="device">
  <diagram name="Page-1" id="5f0bae14-7c28-e335-631c-24af17079c00">
    <mxGraphModel dx="3703" dy="1507" grid="0" gridSize="10" guides="1" tooltips="1" connect="1" arrows="1" fold="1" page="1" pageScale="1" pageWidth="1100" pageHeight="850" background="#ffffff" math="0" shadow="0">
      <root>
        <mxCell id="0" />
        <mxCell id="1" parent="0" />
        <mxCell id="bYLHimvO4HQw0voRVMWc-84" value="&lt;font color=&quot;#0000ff&quot; style=&quot;font-size: 32px;&quot;&gt;MAIN MANAGER&lt;/font&gt;" style="text;html=1;strokeColor=none;fillColor=none;align=center;verticalAlign=middle;whiteSpace=wrap;rounded=0;" parent="1" vertex="1">
          <mxGeometry x="-1100" width="270" height="50" as="geometry" />
        </mxCell>
        <mxCell id="wG_TOprUD2TI2NFrCxs7-1" value="&lt;font style=&quot;font-size: 22px;&quot;&gt;Main Manager&lt;/font&gt;" style="shape=module;align=left;spacingLeft=20;align=center;verticalAlign=top;whiteSpace=wrap;html=1;" parent="1" vertex="1">
          <mxGeometry x="-1068" y="136" width="488" height="247" as="geometry" />
        </mxCell>
        <mxCell id="HuXE95MxmL2E_wQSAet0-1" value="&lt;font style=&quot;font-size: 16px;&quot;&gt;MainManager&lt;/font&gt;" style="swimlane;fontStyle=1;align=center;verticalAlign=top;childLayout=stackLayout;horizontal=1;startSize=26;horizontalStack=0;resizeParent=1;resizeParentMax=0;resizeLast=0;collapsible=1;marginBottom=0;whiteSpace=wrap;html=1;" parent="1" vertex="1">
          <mxGeometry x="-513" y="129" width="307.5" height="268" as="geometry" />
        </mxCell>
        <mxCell id="HuXE95MxmL2E_wQSAet0-2" value="+ setup_manager: SetupManager()" style="text;strokeColor=none;fillColor=none;align=left;verticalAlign=top;spacingLeft=4;spacingRight=4;overflow=hidden;rotatable=0;points=[[0,0.5],[1,0.5]];portConstraint=eastwest;whiteSpace=wrap;html=1;" parent="HuXE95MxmL2E_wQSAet0-1" vertex="1">
          <mxGeometry y="26" width="307.5" height="26" as="geometry" />
        </mxCell>
        <mxCell id="HuXE95MxmL2E_wQSAet0-11" value="+ data_manager: DataManager()" style="text;strokeColor=none;fillColor=none;align=left;verticalAlign=top;spacingLeft=4;spacingRight=4;overflow=hidden;rotatable=0;points=[[0,0.5],[1,0.5]];portConstraint=eastwest;whiteSpace=wrap;html=1;" parent="HuXE95MxmL2E_wQSAet0-1" vertex="1">
          <mxGeometry y="52" width="307.5" height="26" as="geometry" />
        </mxCell>
        <mxCell id="HuXE95MxmL2E_wQSAet0-10" value="+ frontend_manager: FrontendManager()" style="text;strokeColor=none;fillColor=none;align=left;verticalAlign=top;spacingLeft=4;spacingRight=4;overflow=hidden;rotatable=0;points=[[0,0.5],[1,0.5]];portConstraint=eastwest;whiteSpace=wrap;html=1;" parent="HuXE95MxmL2E_wQSAet0-1" vertex="1">
          <mxGeometry y="78" width="307.5" height="26" as="geometry" />
        </mxCell>
        <mxCell id="HuXE95MxmL2E_wQSAet0-9" value="+ backend_manager: BackendManager()" style="text;strokeColor=none;fillColor=none;align=left;verticalAlign=top;spacingLeft=4;spacingRight=4;overflow=hidden;rotatable=0;points=[[0,0.5],[1,0.5]];portConstraint=eastwest;whiteSpace=wrap;html=1;" parent="HuXE95MxmL2E_wQSAet0-1" vertex="1">
          <mxGeometry y="104" width="307.5" height="26" as="geometry" />
        </mxCell>
        <mxCell id="HuXE95MxmL2E_wQSAet0-8" value="+ map_manager: MapManager()" style="text;strokeColor=none;fillColor=none;align=left;verticalAlign=top;spacingLeft=4;spacingRight=4;overflow=hidden;rotatable=0;points=[[0,0.5],[1,0.5]];portConstraint=eastwest;whiteSpace=wrap;html=1;" parent="HuXE95MxmL2E_wQSAet0-1" vertex="1">
          <mxGeometry y="130" width="307.5" height="26" as="geometry" />
        </mxCell>
        <mxCell id="HuXE95MxmL2E_wQSAet0-13" value="+ logger: Logging.GetLogger(_name_)" style="text;strokeColor=none;fillColor=none;align=left;verticalAlign=top;spacingLeft=4;spacingRight=4;overflow=hidden;rotatable=0;points=[[0,0.5],[1,0.5]];portConstraint=eastwest;whiteSpace=wrap;html=1;" parent="HuXE95MxmL2E_wQSAet0-1" vertex="1">
          <mxGeometry y="156" width="307.5" height="26" as="geometry" />
        </mxCell>
        <mxCell id="HuXE95MxmL2E_wQSAet0-5" value="" style="line;strokeWidth=1;fillColor=none;align=left;verticalAlign=middle;spacingTop=-1;spacingLeft=3;spacingRight=3;rotatable=0;labelPosition=right;points=[];portConstraint=eastwest;strokeColor=inherit;" parent="HuXE95MxmL2E_wQSAet0-1" vertex="1">
          <mxGeometry y="182" width="307.5" height="8" as="geometry" />
        </mxCell>
        <mxCell id="HuXE95MxmL2E_wQSAet0-7" value="+ _init_(): None" style="text;strokeColor=none;fillColor=none;align=left;verticalAlign=top;spacingLeft=4;spacingRight=4;overflow=hidden;rotatable=0;points=[[0,0.5],[1,0.5]];portConstraint=eastwest;whiteSpace=wrap;html=1;" parent="HuXE95MxmL2E_wQSAet0-1" vertex="1">
          <mxGeometry y="190" width="307.5" height="26" as="geometry" />
        </mxCell>
        <mxCell id="Iv1fOCtHbPW6iCnJi78h-8" value="+ setup_system(): None" style="text;strokeColor=none;fillColor=none;align=left;verticalAlign=top;spacingLeft=4;spacingRight=4;overflow=hidden;rotatable=0;points=[[0,0.5],[1,0.5]];portConstraint=eastwest;whiteSpace=wrap;html=1;" vertex="1" parent="HuXE95MxmL2E_wQSAet0-1">
          <mxGeometry y="216" width="307.5" height="26" as="geometry" />
        </mxCell>
        <mxCell id="HuXE95MxmL2E_wQSAet0-6" value="+ build_map(): None" style="text;strokeColor=none;fillColor=none;align=left;verticalAlign=top;spacingLeft=4;spacingRight=4;overflow=hidden;rotatable=0;points=[[0,0.5],[1,0.5]];portConstraint=eastwest;whiteSpace=wrap;html=1;" parent="HuXE95MxmL2E_wQSAet0-1" vertex="1">
          <mxGeometry y="242" width="307.5" height="26" as="geometry" />
        </mxCell>
        <mxCell id="Iv1fOCtHbPW6iCnJi78h-1" value="&lt;font style=&quot;font-size: 18px;&quot;&gt;Logger&lt;/font&gt;" style="rounded=0;whiteSpace=wrap;html=1;" vertex="1" parent="1">
          <mxGeometry x="-1028" y="191" width="120" height="60" as="geometry" />
        </mxCell>
        <mxCell id="Iv1fOCtHbPW6iCnJi78h-2" value="&lt;font style=&quot;font-size: 18px;&quot;&gt;Setup Manager&lt;/font&gt;" style="rounded=0;whiteSpace=wrap;html=1;" vertex="1" parent="1">
          <mxGeometry x="-885" y="191" width="120" height="60" as="geometry" />
        </mxCell>
        <mxCell id="Iv1fOCtHbPW6iCnJi78h-3" value="&lt;font style=&quot;font-size: 18px;&quot;&gt;Data&lt;br&gt;&amp;nbsp;Manager&lt;/font&gt;" style="rounded=0;whiteSpace=wrap;html=1;" vertex="1" parent="1">
          <mxGeometry x="-737" y="191" width="120" height="60" as="geometry" />
        </mxCell>
        <mxCell id="Iv1fOCtHbPW6iCnJi78h-4" value="&lt;font style=&quot;font-size: 18px;&quot;&gt;Backend Manager&lt;/font&gt;" style="rounded=0;whiteSpace=wrap;html=1;" vertex="1" parent="1">
          <mxGeometry x="-885" y="283" width="120" height="60" as="geometry" />
        </mxCell>
        <mxCell id="Iv1fOCtHbPW6iCnJi78h-5" value="&lt;font style=&quot;font-size: 18px;&quot;&gt;Map Manager&lt;/font&gt;" style="rounded=0;whiteSpace=wrap;html=1;" vertex="1" parent="1">
          <mxGeometry x="-737" y="283" width="120" height="60" as="geometry" />
        </mxCell>
        <mxCell id="Iv1fOCtHbPW6iCnJi78h-6" value="&lt;font style=&quot;font-size: 18px;&quot;&gt;Frontend Manager&lt;/font&gt;" style="rounded=0;whiteSpace=wrap;html=1;" vertex="1" parent="1">
          <mxGeometry x="-1028" y="283" width="120" height="60" as="geometry" />
        </mxCell>
      </root>
    </mxGraphModel>
  </diagram>
</mxfile>
